<?xml version="1.0" standalone="no"?>
<!DOCTYPE svg PUBLIC "-//W3C//DTD SVG 20010904//EN"
 "http://www.w3.org/TR/2001/REC-SVG-20010904/DTD/svg10.dtd">
<svg version="1.0" xmlns="http://www.w3.org/2000/svg"
 width="300.000000pt" height="300.000000pt" viewBox="0 0 300.000000 300.000000"
 preserveAspectRatio="xMidYMid meet">
<metadata>
Created by potrace 1.11, written by Peter Selinger 2001-2013
</metadata>
<g transform="translate(0.000000,300.000000) scale(0.100000,-0.100000)"
fill="#000000" stroke="none">
<path d="M1735 2982 c-3 -3 -15 -7 -27 -9 -12 -2 -41 -14 -63 -28 -322 -188
-249 -925 109 -1105 104 -52 204 -38 291 41 61 56 107 142 134 249 25 102 22
281 -8 400 -40 161 -135 316 -241 393 -52 37 -178 76 -195 59z"/>
<path d="M782 2668 c-78 -27 -163 -138 -192 -253 -29 -117 -13 -329 35 -465
87 -241 259 -410 424 -416 133 -5 226 80 276 251 19 65 24 212 11 305 -24 170
-110 348 -225 465 -97 98 -233 145 -329 113z"/>
<path d="M2600 2232 c-72 -9 -124 -36 -185 -96 -194 -190 -234 -561 -87 -799
66 -108 152 -161 257 -160 145 1 274 119 342 314 33 97 34 99 38 219 5 174
-31 295 -121 410 -59 74 -164 123 -244 112z"/>
<path d="M301 1724 c-85 -31 -150 -100 -190 -203 -26 -65 -35 -120 -35 -216
-1 -106 9 -160 45 -258 73 -202 228 -346 378 -353 279 -13 417 394 253 746
-101 218 -296 341 -451 284z"/>
<path d="M1443 1595 c-98 -27 -180 -80 -209 -137 -20 -39 -43 -170 -45 -265
-3 -114 -20 -175 -83 -301 -45 -89 -70 -126 -124 -180 -139 -139 -167 -193
-160 -314 3 -67 11 -96 36 -150 42 -87 118 -169 179 -196 126 -54 347 5 510
136 122 97 193 133 293 148 19 3 50 10 69 16 53 16 135 12 276 -16 187 -38
188 -38 210 -39 113 -6 227 121 268 299 27 117 7 249 -45 291 -7 6 -105 57
-218 113 -113 57 -230 121 -260 143 -51 37 -127 126 -273 319 -31 42 -73 86
-92 98 -78 48 -225 64 -332 35z"/>
</g>
</svg>
